<mxfile host="app.diagrams.net" modified="2025-08-21T16:52:00.000Z" agent="5.0" version="24.7.17">
  <diagram name="Shopping Cart Architecture" id="simple-arch">
    <mxGraphModel dx="1200" dy="800" grid="1" gridSize="10" guides="1" tooltips="1" connect="1" arrows="1" fold="1" page="1" pageScale="1" pageWidth="1169" pageHeight="827">
      <root>
        <mxCell id="0" />
        <mxCell id="1" parent="0" />
        
        <mxCell id="title" value="Shopping Cart Application Architecture" style="text;html=1;align=center;verticalAlign=middle;whiteSpace=wrap;rounded=0;fontSize=18;fontStyle=1;" vertex="1" parent="1">
          <mxGeometry x="400" y="30" width="400" height="30" as="geometry" />
        </mxCell>
        
        <mxCell id="user" value="👤 User" style="rounded=1;whiteSpace=wrap;html=1;fillColor=#e1f5fe;strokeColor=#01579b;fontSize=14;" vertex="1" parent="1">
          <mxGeometry x="80" y="120" width="120" height="60" as="geometry" />
        </mxCell>
        
        <mxCell id="frontend" value="⚛️ React Frontend&#xa;TypeScript + CSS" style="rounded=1;whiteSpace=wrap;html=1;fillColor=#e8f5e8;strokeColor=#2e7d32;fontSize=12;" vertex="1" parent="1">
          <mxGeometry x="280" y="120" width="150" height="60" as="geometry" />
        </mxCell>
        
        <mxCell id="api-gateway" value="🚪 API Gateway&#xa;REST API" style="rounded=1;whiteSpace=wrap;html=1;fillColor=#fff3e0;strokeColor=#e65100;fontSize=12;" vertex="1" parent="1">
          <mxGeometry x="500" y="120" width="120" height="60" as="geometry" />
        </mxCell>
        
        <mxCell id="lambda" value="⚡ AWS Lambda&#xa;Python 3.12&#xa;Clean Architecture" style="rounded=1;whiteSpace=wrap;html=1;fillColor=#fce4ec;strokeColor=#880e4f;fontSize=11;" vertex="1" parent="1">
          <mxGeometry x="680" y="120" width="140" height="60" as="geometry" />
        </mxCell>
        
        <mxCell id="dynamodb" value="🗄️ DynamoDB&#xa;NoSQL Database&#xa;shopping-carts table" style="rounded=1;whiteSpace=wrap;html=1;fillColor=#f3e5f5;strokeColor=#4a148c;fontSize=11;" vertex="1" parent="1">
          <mxGeometry x="880" y="120" width="140" height="60" as="geometry" />
        </mxCell>
        
        <mxCell id="domain" value="🎯 Domain Layer&#xa;Cart, CartItem Entities" style="rounded=1;whiteSpace=wrap;html=1;fillColor=#e0f2f1;strokeColor=#00695c;fontSize=10;" vertex="1" parent="1">
          <mxGeometry x="500" y="220" width="130" height="50" as="geometry" />
        </mxCell>
        
        <mxCell id="application" value="⚙️ Application Layer&#xa;AddItemToCart Use Case" style="rounded=1;whiteSpace=wrap;html=1;fillColor=#e0f2f1;strokeColor=#00695c;fontSize=10;" vertex="1" parent="1">
          <mxGeometry x="650" y="220" width="130" height="50" as="geometry" />
        </mxCell>
        
        <mxCell id="infrastructure" value="🔧 Infrastructure Layer&#xa;DynamoDB Repository" style="rounded=1;whiteSpace=wrap;html=1;fillColor=#e0f2f1;strokeColor=#00695c;fontSize=10;" vertex="1" parent="1">
          <mxGeometry x="800" y="220" width="130" height="50" as="geometry" />
        </mxCell>
        
        <mxCell id="testing" value="🧪 Testing&#xa;29 Tests (100% Coverage)&#xa;Unit + Integration + API" style="rounded=1;whiteSpace=wrap;html=1;fillColor=#ffebee;strokeColor=#c62828;fontSize=10;" vertex="1" parent="1">
          <mxGeometry x="80" y="300" width="180" height="60" as="geometry" />
        </mxCell>
        
        <mxCell id="monitoring" value="📊 Monitoring&#xa;CloudWatch Logs&#xa;Performance Metrics" style="rounded=1;whiteSpace=wrap;html=1;fillColor=#e3f2fd;strokeColor=#0277bd;fontSize=10;" vertex="1" parent="1">
          <mxGeometry x="300" y="300" width="150" height="60" as="geometry" />
        </mxCell>
        
        <mxCell id="security" value="🔒 Security&#xa;IAM Roles&#xa;CORS + HTTPS" style="rounded=1;whiteSpace=wrap;html=1;fillColor=#fff8e1;strokeColor=#f57f17;fontSize=10;" vertex="1" parent="1">
          <mxGeometry x="480" y="300" width="120" height="60" as="geometry" />
        </mxCell>
        
        <mxCell id="endpoint" value="🔗 Live API Endpoint&#xa;https://mk8ppghx0d.execute-api.us-east-1.amazonaws.com/prod" style="rounded=1;whiteSpace=wrap;html=1;fillColor=#f1f8e9;strokeColor=#33691e;fontSize=9;" vertex="1" parent="1">
          <mxGeometry x="640" y="300" width="380" height="60" as="geometry" />
        </mxCell>
        
        <mxCell id="arrow1" style="edgeStyle=orthogonalEdgeStyle;rounded=0;orthogonalLoop=1;jettySize=auto;html=1;strokeWidth=2;endArrow=classic;" edge="1" parent="1" source="user" target="frontend">
          <mxGeometry relative="1" as="geometry" />
        </mxCell>
        
        <mxCell id="arrow2" style="edgeStyle=orthogonalEdgeStyle;rounded=0;orthogonalLoop=1;jettySize=auto;html=1;strokeWidth=2;endArrow=classic;" edge="1" parent="1" source="frontend" target="api-gateway">
          <mxGeometry relative="1" as="geometry" />
        </mxCell>
        
        <mxCell id="arrow3" style="edgeStyle=orthogonalEdgeStyle;rounded=0;orthogonalLoop=1;jettySize=auto;html=1;strokeWidth=2;endArrow=classic;" edge="1" parent="1" source="api-gateway" target="lambda">
          <mxGeometry relative="1" as="geometry" />
        </mxCell>
        
        <mxCell id="arrow4" style="edgeStyle=orthogonalEdgeStyle;rounded=0;orthogonalLoop=1;jettySize=auto;html=1;strokeWidth=2;endArrow=classic;" edge="1" parent="1" source="lambda" target="dynamodb">
          <mxGeometry relative="1" as="geometry" />
        </mxCell>
        
        <mxCell id="arrow5" style="edgeStyle=orthogonalEdgeStyle;rounded=0;orthogonalLoop=1;jettySize=auto;html=1;strokeWidth=1;endArrow=classic;strokeColor=#666666;" edge="1" parent="1" source="lambda" target="domain">
          <mxGeometry relative="1" as="geometry" />
        </mxCell>
        
        <mxCell id="arrow6" style="edgeStyle=orthogonalEdgeStyle;rounded=0;orthogonalLoop=1;jettySize=auto;html=1;strokeWidth=1;endArrow=classic;strokeColor=#666666;" edge="1" parent="1" source="domain" target="application">
          <mxGeometry relative="1" as="geometry" />
        </mxCell>
        
        <mxCell id="arrow7" style="edgeStyle=orthogonalEdgeStyle;rounded=0;orthogonalLoop=1;jettySize=auto;html=1;strokeWidth=1;endArrow=classic;strokeColor=#666666;" edge="1" parent="1" source="application" target="infrastructure">
          <mxGeometry relative="1" as="geometry" />
        </mxCell>
        
      </root>
    </mxGraphModel>
  </diagram>
</mxfile>
